#!OML:ASF H:\Terrain\Patient Classification 1\Takeo\Monday\TakeoMonday.ASF
:FULLY-SPECIFIED
:DEGREES
420
root 4.35858 16.9033 0.82704 -176.702 61.4323 -176.013
lowerback 12.8088 -0.607796 0.0343745
upperback 7.09671 -0.307605 0.293435
thorax 0.255691 0.0482616 0.323891
lowerneck -0.443835 -18.7005 -11.5656
upperneck -4.12073 -25.01 16.5721
head 2.38128 -12.4612 5.37387
rclavicle 6.16232e-015 -1.25234e-014
rhumerus 28.9148 47.6096 -84.5572
rradius 49.2497
rwrist -3.23482
rhand -46.7817 53.3172
rfingers 7.12502
rthumb -19.4974 24.2747
lclavicle 6.16232e-015 -1.25234e-014
lhumerus 2.09193 -13.8285 81.5825
lradius 95.0773
lwrist 10.3097
lhand -45.8455 27.0383
lfingers 7.12502
lthumb -18.5971 56.1693
rfemur -14.2322 -11.4109 11.593
rtibia 43.1274
rfoot -23.0067 -19.8578
rtoes -3.07649
lfemur -23.8288 9.04198 -14.7618
ltibia 47.2893
lfoot -16.8374 4.08099
ltoes -4.67795
421
root 4.3554 16.8747 0.819861 -176.313 61.3251 -175.695
lowerback 12.8148 -0.511039 0.186595
upperback 7.23717 -0.14837 0.314504
thorax 0.39838 0.138082 0.241017
lowerneck -0.366843 -18.8293 -11.6663
upperneck -4.24324 -25.1882 16.7841
head 2.39833 -12.5548 5.42962
rclavicle 2.6339e-014 3.57812e-015
rhumerus 30.8074 48.214 -83.0218
rradius 49.1265
rwrist -3.12156
rhand -46.8002 54.137
rfingers 7.12502
rthumb -19.5152 25.0964
lclavicle 2.6339e-014 3.57812e-015
lhumerus 2.29911 -13.3746 81.3623
lradius 95.7219
lwrist 10.5734
lhand -46.4233 27.6783
lfingers 7.12502
lthumb -19.1528 56.7552
rfemur -14.6838 -11.4451 11.7783
rtibia 43.7969
rfoot -22.6632 -20.1056
rtoes -3.87625
lfemur -24.2828 9.37836 -14.6578
ltibia 47.8585
lfoot -16.9034 3.80444
ltoes -5.23687
422
root 4.35498 16.8499 0.811665 -176.378 61.2694 -175.791
lowerback 12.9346 -0.445514 0.0419407
upperback 7.34033 -0.0638218 0.298092
thorax 0.443203 0.182061 0.29545
lowerneck -0.0101136 -18.8506 -12.0891
upperneck -4.34727 -25.263 17.4195
head 2.46576 -12.6078 5.66655
rclavicle -2.66371e-014 -1.23246e-014
rhumerus 32.3401 48.7461 -82.0031
rradius 48.9074
rwrist -2.34434
rhand -46.8952 53.8271
rfingers 7.12502
rthumb -19.6065 24.7957
lclavicle -2.66371e-014 -1.23246e-014
lhumerus 2.20244 -12.666 81.2417
lradius 96.3218
lwrist 10.764
lhand -46.8588 26.9191
lfingers 7.12502
lthumb -19.5716 55.954
rfemur -14.9824 -11.5433 11.7019
rtibia 44.364
rfoot -22.77 -20.0979
rtoes -4.44365
lfemur -24.5814 9.55087 -14.7394
ltibia 48.424
lfoot -17.2099 3.48184
ltoes -5.21062
423
root 4.35567 16.8293 0.794644 -176.369 61.2305 -175.716
lowerback 13.1909 -0.496241 0.0799031
upperback 7.32531 -0.121606 0.289835
thorax 0.290546 0.156313 0.272604
lowerneck 0.607429 -18.7432 -12.7116
upperneck -4.41448 -25.1971 18.0439
head 2.50801 -12.6031 5.96617
rclavicle -3.93594e-014 3.97569e-016
rhumerus 33.4106 49.5134 -81.5179
rradius 48.6079
rwrist -1.30377
rhand -47.2282 53.3214
rfingers 7.12502
rthumb -19.9266 24.323
lclavicle -3.93594e-014 3.97569e-016
lhumerus 1.49655 -11.54 81.1683
lradius 97.2486
lwrist 10.5558
lhand -47.0648 25.6988
lfingers 7.12502
lthumb -19.7695 54.7134
rfemur -15.0849 -11.5777 11.6444
rtibia 44.7743
rfoot -23.1798 -19.9433
rtoes -3.92264
lfemur -24.7703 9.59713 -14.7416
ltibia 48.9893
lfoot -17.6185 3.2308
ltoes -5.04829
424
root 4.35582 16.8093 0.775212 -175.498 61.1235 -174.501
lowerback 13.5844 -0.556898 1.04228
upperback 7.35145 -0.0776922 0.216249
thorax 0.104237 0.212161 -0.351315
lowerneck 1.19165 -18.674 -12.8759
upperneck -4.66043 -25.1484 18.613
head 2.4409 -12.6157 6.21026
rclavicle 3.99557e-014 -1.03368e-014
rhumerus 34.3075 49.7436 -81.3804
rradius 48.3558
rwrist -0.534913
rhand -47.317 53.4902
rfingers 7.12502
rthumb -20.012 24.5007
lclavicle 3.99557e-014 -1.03368e-014
lhumerus 0.818897 -10.7722 80.9486
lradius 98.3426
lwrist 10.4173
lhand -47.1868 25.0542
lfingers 7.12502
lthumb -19.8869 54.0567
rfemur -14.9639 -11.4405 12.1841
rtibia 45.0817
rfoot -23.5981 -19.8243
rtoes -1.82377
lfemur -24.849 9.51644 -14.1208
ltibia 49.5154
lfoot -17.9343 3.05617
ltoes -4.35865
425
root 4.35847 16.7887 0.767103 -175.034 60.9527 -173.823
lowerback 13.7851 -0.604284 1.53277
upperback 7.52502 -0.0582324 0.147254
thorax 0.17957 0.248571 -0.701354
lowerneck 1.11016 -18.6942 -12.6085
upperneck -4.70669 -25.1566 18.6423
head 2.41285 -12.6202 6.1832
rclavicle -6.07287e-014 5.96354e-016
rhumerus 35.6324 49.9185 -80.8054
rradius 48.3498
rwrist -0.238156
rhand -46.7247 53.8692
rfingers 7.12502
rthumb -19.4426 24.8213
lclavicle -6.07287e-014 5.96354e-016
lhumerus 0.513886 -9.99246 80.8556
lradius 99.0947
lwrist 10.1658
lhand -47.4607 24.7614
lfingers 7.12502
lthumb -20.1502 53.7364
rfemur -14.9202 -11.3819 12.5065
rtibia 45.4089
rfoot -23.8321 -19.8665
rtoes -0.402798
lfemur -24.998 9.42521 -13.7635
ltibia 49.9598
lfoot -18.0465 3.03666
ltoes -3.17243
426
root 4.36356 16.7616 0.762683 -175.93 60.9351 -174.747
lowerback 13.8958 -0.575237 0.852486
upperback 7.73796 -0.0749446 0.0785429
thorax 0.346349 0.233551 -0.386825
lowerneck 0.843144 -18.7214 -12.7102
upperneck -4.52634 -25.1984 18.6987
head 2.53477 -12.622 6.16536
rclavicle 1.61016e-014 -2.06736e-014
rhumerus 37.2588 50.4477 -79.6657
rradius 48.4423
rwrist -0.0353353
rhand -45.5556 53.7672
rfingers 7.12502
rthumb -18.3182 24.6097
lclavicle 1.61016e-014 -2.06736e-014
lhumerus 0.375388 -8.94404 81.0375
lradius 99.6087
lwrist 9.92701
lhand -47.7862 24.7181
lfingers 7.12502
lthumb -20.463 53.6598
rfemur -14.9303 -11.3818 11.9203
rtibia 45.7967
rfoot -24.1463 -19.6532
rtoes -0.076397
lfemur -25.077 9.39765 -14.2738
ltibia 50.3537
lfoot -18.159 3.19532
ltoes -2.98511
427
root 4.36723 16.7326 0.7602 -177.135 60.9538 -176.15
lowerback 13.957 -0.462267 -0.0165337
upperback 7.88869 -0.0103658 -0.052855
thorax 0.476696 0.249579 -0.0422312
lowerneck 0.806116 -18.7804 -12.9907
upperneck -4.37012 -25.3133 18.9691
head 2.678 -12.6713 6.23613
rclavicle -9.24349e-015 1.8487e-014
rhumerus 38.7587 50.8177 -78.6122
rradius 48.3616
rwrist 0.502853
rhand -44.7395 53.7854
rfingers 7.12502
rthumb -17.533 24.556
lclavicle -9.24349e-015 1.8487e-014
lhumerus 0.221574 -8.05937 81.3114
lradius 100.369
lwrist 10.0129
lhand -48.285 24.3791
lfingers 7.12502
lthumb -20.9423 53.2685
rfemur -15.0962 -11.5452 11.0741
rtibia 46.2304
rfoot -24.3439 -19.2126
rtoes -0.035378
lfemur -25.2554 9.4234 -15.0653
ltibia 50.7618
lfoot -18.401 3.22285
ltoes -3.73119
428
root 4.36449 16.7108 0.757516 -176.735 60.8353 -175.903
lowerback 13.8901 -0.391758 0.227901
upperback 7.94949 0.116714 -0.107355
thorax 0.576204 0.324967 -0.252649
lowerneck 0.842277 -18.9617 -12.8722
upperneck -4.24059 -25.5795 18.9116
head 2.72618 -12.8041 6.16794
rclavicle 2.87244e-014 -8.74653e-015
rhumerus 39.8403 50.7613 -78.1954
rradius 48.0078
rwrist 1.33259
rhand -44.1924 53.7878
rfingers 7.12502
rthumb -17.0064 24.5122
lclavicle 2.87244e-014 -8.74653e-015
lhumerus -0.140373 -7.51184 81.5416
lradius 101.329
lwrist 10.2107
lhand -49.0873 23.9139
lfingers 7.12502
lthumb -21.7128 52.7162
rfemur -15.5226 -11.8502 11.2483
rtibia 46.6523
rfoot -24.0361 -19.3342
rtoes -1.51689
lfemur -25.7315 9.50448 -14.9827
ltibia 51.2336
lfoot -18.6142 3.02696
ltoes -3.8397
